<?xml version="1.0" standalone="no"?>
<!DOCTYPE svg PUBLIC "-//W3C//DTD SVG 20010904//EN"
 "http://www.w3.org/TR/2001/REC-SVG-20010904/DTD/svg10.dtd">
<svg version="1.0" xmlns="http://www.w3.org/2000/svg"
 width="32.000000pt" height="32.000000pt" viewBox="0 0 32.000000 32.000000"
 preserveAspectRatio="xMidYMid meet">

<g transform="translate(0.000000,32.000000) scale(0.100000,-0.100000)"
fill="#007d99" stroke="none">
<path d="M140 309 c0 -6 -6 -9 -14 -6 -9 4 -12 -2 -10 -20 4 -36 13 -41 34
-15 10 12 23 22 29 22 17 0 13 -10 -11 -31 l-23 -18 28 -1 c28 0 57 19 57 39
0 6 -6 8 -14 5 -8 -3 -19 3 -26 15 -11 22 -50 29 -50 10z"/>
<path d="M52 265 c-18 -18 -38 -49 -43 -69 -28 -100 75 -209 178 -190 28 5 31
9 23 24 -8 15 -6 18 8 15 9 -1 16 -9 14 -16 -2 -8 13 3 32 23 29 30 35 43 30
63 -4 18 -2 25 9 25 10 0 13 8 9 25 -2 14 -11 25 -18 25 -17 0 -19 30 -1 30 6
0 4 5 -6 11 -9 6 -15 14 -12 20 4 5 -1 9 -10 9 -9 0 -14 4 -10 9 3 5 1 12 -5
16 -13 8 -13 -18 0 -31 13 -13 3 -44 -14 -44 -6 0 -4 -5 4 -10 9 -6 10 -10 3
-10 -7 0 -17 9 -23 20 -13 24 -65 28 -74 4 -3 -8 -11 -12 -17 -8 -7 4 -20 -4
-30 -17 -10 -13 -21 -20 -26 -15 -4 4 2 15 15 23 14 10 22 26 22 44 0 30 -14
39 -24 17 -3 -7 -3 -1 -1 15 2 15 3 27 2 26 -1 0 -17 -15 -35 -34z m154 -117
c-32 -18 -15 -27 19 -11 19 9 35 23 35 30 0 7 7 13 16 13 10 0 14 -7 12 -22
-2 -13 -9 -22 -17 -20 -22 5 -72 -19 -68 -32 2 -6 16 -11 30 -11 28 1 35 -17
19 -43 -6 -9 -14 -6 -30 13 -16 19 -28 24 -46 19 -30 -7 -39 8 -31 48 5 20 10
26 15 18 5 -7 15 -10 25 -6 10 3 15 9 12 13 -4 3 -1 13 6 21 10 13 12 13 16
-3 1 -10 -4 -22 -13 -27z m84 -42 c0 -3 -4 -8 -10 -11 -5 -3 -10 -1 -10 4 0 6
5 11 10 11 6 0 10 -2 10 -4z"/>
</g>
</svg>
